<?xml version="1.0" standalone="no"?>
<!DOCTYPE svg PUBLIC "-//W3C//DTD SVG 20010904//EN"
 "http://www.w3.org/TR/2001/REC-SVG-20010904/DTD/svg10.dtd">
<svg version="1.0" xmlns="http://www.w3.org/2000/svg"
 width="646.000000pt" height="553.000000pt" viewBox="0 0 646.000000 553.000000"
 preserveAspectRatio="xMidYMid meet">

<g transform="translate(0.000000,553.000000) scale(0.100000,-0.100000)"
fill="#000000" stroke="none">
<path d="M3541 5296 c-14 -8 -37 -12 -53 -9 -21 3 -35 -3 -62 -31 -31 -31 -34
-39 -29 -73 7 -43 31 -98 40 -89 4 3 11 2 18 -4 13 -11 73 -16 296 -26 l165
-7 21 -32 c15 -22 18 -36 11 -48 -5 -11 -5 -37 1 -69 5 -29 7 -57 4 -61 -7
-11 -5 -656 3 -882 3 -99 7 -270 8 -380 3 -321 1 -309 37 -344 34 -35 73 -40
88 -13 6 11 11 38 13 62 1 24 10 59 20 79 15 31 19 69 18 151 -1 71 21 344 28
349 8 5 15 494 10 761 -5 314 1 393 36 428 12 12 36 15 110 13 77 -2 104 1
140 17 60 27 69 47 53 117 -12 54 -15 58 -52 71 -22 7 -47 11 -57 8 -9 -2 -19
0 -23 6 -4 7 -12 7 -26 -1 -13 -7 -25 -7 -32 -1 -7 6 -51 6 -114 2 -55 -5
-126 -5 -156 -1 -30 4 -147 5 -260 3 -143 -3 -207 -1 -211 7 -9 14 -15 13 -45
-3z"/>
<path d="M759 5296 c-3 -3 -83 -7 -178 -10 l-174 -4 -28 -29 c-49 -50 -43 -82
24 -115 71 -36 114 -46 237 -53 58 -4 120 -10 137 -15 19 -5 35 -4 39 1 9 15
54 10 60 -6 4 -8 12 -15 20 -15 28 0 37 -43 37 -194 0 -83 -1 -313 -1 -511 0
-198 -1 -409 -1 -470 -1 -60 -2 -132 -1 -158 1 -29 -5 -58 -14 -73 -9 -13 -16
-30 -16 -38 0 -29 -74 -93 -135 -116 -84 -32 -224 -39 -312 -15 -54 15 -74 27
-120 71 -47 46 -60 54 -92 54 -30 0 -46 -8 -73 -34 -39 -38 -56 -95 -32 -109
8 -4 14 -12 14 -17 0 -19 65 -99 81 -99 8 -1 26 -12 39 -26 13 -14 29 -25 36
-25 7 0 17 -7 22 -16 13 -23 148 -53 269 -61 125 -7 205 11 291 66 67 44 182
152 182 172 0 8 9 20 20 27 11 7 20 20 20 30 0 9 7 25 14 35 8 10 12 27 9 37
-3 11 3 32 13 47 18 26 19 62 22 643 2 338 4 635 4 660 0 73 -12 280 -18 305
-3 14 -11 22 -19 19 -7 -3 -16 3 -19 14 -8 23 -32 36 -41 22 -6 -9 -34 -8
-236 5 -41 3 -77 3 -80 1z"/>
<path d="M2097 5247 c-12 -4 -37 -6 -57 -4 -46 5 -76 -9 -100 -48 -23 -37 -17
-72 14 -81 11 -3 28 -12 36 -20 25 -22 124 -43 212 -45 46 -1 107 -8 136 -14
28 -7 52 -8 52 -4 0 16 60 10 66 -6 4 -8 12 -15 19 -15 30 0 36 -29 37 -187 0
-87 0 -320 0 -518 0 -198 0 -385 0 -415 0 -227 -4 -261 -30 -313 -32 -65 -46
-79 -107 -110 -73 -36 -151 -50 -241 -45 -109 7 -167 30 -225 88 -36 36 -57
49 -85 52 -33 4 -42 0 -75 -34 -40 -41 -57 -97 -33 -111 8 -4 14 -13 14 -18 0
-15 70 -99 82 -99 9 0 50 -29 91 -65 38 -33 256 -71 362 -62 74 6 159 35 217
75 60 41 168 148 168 166 0 8 7 19 16 24 19 10 44 74 44 111 0 14 8 33 18 44
16 18 17 65 20 636 2 339 3 627 4 641 2 26 -11 258 -16 300 -2 14 -4 34 -5 45
-1 14 -4 16 -9 7 -6 -9 -14 -6 -29 12 -18 20 -27 23 -55 17 -18 -4 -42 -6 -53
-4 -41 8 -467 8 -488 0z"/>
<path d="M1955 4905 c-5 -2 -21 -6 -35 -9 l-25 -5 -2 -288 c-1 -228 -12 -505
-25 -643 -2 -22 -57 -67 -90 -74 -81 -16 -133 2 -168 59 -26 43 -27 61 -16
430 l8 270 -25 24 c-18 16 -42 25 -76 29 -43 4 -53 1 -74 -20 -21 -21 -26 -38
-32 -114 -4 -49 -4 -138 1 -199 12 -147 10 -335 -3 -415 -10 -58 -9 -70 9
-112 21 -48 67 -98 92 -98 8 0 18 -5 22 -11 3 -6 15 -9 25 -6 11 3 19 1 19 -5
0 -5 4 -7 9 -3 5 3 12 1 15 -4 9 -13 214 -7 259 8 21 7 49 10 63 7 43 -11 130
38 160 90 l26 44 5 323 c9 664 9 665 -4 660 -8 -3 -13 3 -13 16 0 33 -79 61
-125 46z"/>
<path d="M3545 4899 l-30 -8 -2 -293 c-2 -237 -11 -478 -25 -633 -3 -27 -53
-72 -90 -79 -82 -16 -143 7 -175 66 -15 28 -17 54 -13 178 2 80 4 230 4 335
l1 189 -34 23 c-46 31 -104 31 -135 -1 -20 -19 -25 -38 -31 -112 -4 -49 -4
-138 1 -199 14 -175 8 -403 -11 -462 -8 -24 20 -87 55 -122 34 -36 95 -65 111
-55 5 3 9 0 9 -6 0 -6 4 -9 9 -5 5 3 12 1 15 -4 8 -12 212 -6 256 8 19 6 48 9
65 6 21 -4 47 3 84 22 44 23 60 38 80 76 l24 48 4 472 c2 260 5 480 7 489 2
10 -1 15 -9 12 -7 -3 -15 5 -19 19 -10 40 -80 57 -151 36z"/>
<path d="M5493 4855 c-22 -9 -33 -21 -33 -35 0 -22 -16 -27 -23 -7 -3 6 -3 -6
-1 -28 2 -22 5 -245 7 -497 l3 -456 25 -47 c29 -58 99 -99 169 -100 25 -1 76
-7 115 -14 38 -7 85 -10 105 -7 19 3 54 7 78 8 23 1 42 6 42 12 0 5 3 7 6 3 8
-8 64 12 98 36 33 23 77 112 71 142 -21 95 -25 296 -11 456 5 52 5 139 1 194
-6 84 -10 101 -31 122 -25 25 -70 30 -121 13 -55 -20 -57 -32 -47 -322 11
-344 10 -367 -11 -411 -20 -43 -70 -77 -112 -77 -74 0 -142 43 -150 95 -12 71
-33 581 -31 735 l3 184 -25 7 c-41 12 -93 9 -127 -6z"/>
<path d="M4526 4812 c-76 -6 -124 -64 -133 -162 -11 -115 -12 -290 -2 -290 6
0 7 -5 4 -10 -12 -20 33 -97 69 -120 33 -20 48 -21 213 -21 179 0 394 -12 446
-25 15 -3 33 -16 39 -27 15 -29 3 -113 -22 -144 -22 -28 -25 -29 -130 -39 -48
-4 -497 -15 -586 -14 -20 0 -27 -84 -10 -124 8 -20 20 -36 26 -36 6 0 9 -3 7
-7 -5 -8 207 -7 576 0 148 3 170 6 195 23 37 28 62 82 69 151 8 74 9 263 1
283 -3 8 -9 29 -13 47 -4 17 -16 41 -28 53 -36 39 -74 47 -207 44 -321 -7
-457 -6 -478 5 -53 28 -72 121 -33 160 44 44 66 48 331 55 140 4 273 12 295
18 22 6 56 11 75 12 l35 1 3 66 c5 109 22 104 -372 104 -182 0 -349 -1 -370
-3z"/>
<path d="M639 2867 c-23 -15 -39 -37 -49 -67 -27 -78 -57 -125 -111 -174 -71
-65 -204 -125 -315 -142 -57 -8 -66 -16 -59 -46 6 -25 13 -27 121 -43 106 -16
155 -16 212 1 l22 6 2 -258 c1 -143 1 -268 0 -279 -1 -23 -2 -384 -1 -618 0
-86 -3 -162 -6 -167 -3 -6 -1 -10 4 -10 6 0 11 -11 11 -25 0 -37 25 -79 54
-93 14 -6 26 -17 26 -24 0 -9 3 -9 12 0 7 7 20 12 30 12 9 0 33 14 52 30 45
40 49 65 48 342 0 210 1 228 18 233 10 3 20 14 23 25 4 17 39 38 72 44 6 1 16
5 22 9 25 15 91 -42 133 -114 51 -89 93 -150 153 -226 37 -47 67 -90 67 -95 0
-6 14 -26 30 -45 17 -18 30 -38 30 -44 0 -6 20 -34 45 -62 25 -29 45 -57 45
-63 0 -6 7 -17 16 -25 8 -7 24 -29 34 -49 10 -19 39 -63 64 -97 25 -33 46 -65
46 -70 0 -5 20 -33 45 -62 25 -30 59 -72 75 -95 37 -52 257 -262 332 -316 63
-45 173 -100 200 -100 10 0 22 10 29 21 10 19 0 32 -105 138 -64 64 -128 134
-143 156 -14 22 -58 74 -97 116 -39 41 -82 97 -96 125 -14 27 -44 77 -67 110
-24 34 -43 65 -43 69 0 4 -15 26 -32 49 -18 23 -42 59 -53 81 -11 22 -34 59
-52 82 -17 24 -35 53 -39 65 -3 13 -15 35 -26 50 -11 16 -17 28 -13 28 5 0
-20 51 -48 95 -6 11 -33 44 -59 73 -27 30 -48 58 -48 62 0 5 -14 30 -31 55
-43 64 -46 116 -9 149 15 13 40 32 56 42 58 37 184 173 205 221 72 167 101
397 60 486 -21 46 -64 77 -106 77 -61 0 -141 -76 -119 -112 12 -19 4 -175 -12
-258 -16 -79 -26 -99 -67 -140 -74 -75 -122 -101 -230 -125 -85 -19 -248 -18
-268 2 -7 7 -11 124 -12 354 l-2 344 38 95 c58 146 58 173 -3 205 -40 21 -71
19 -111 -8z"/>
<path d="M4083 2720 c-45 -26 -53 -35 -53 -60 0 -66 93 -235 152 -278 10 -7
29 -33 43 -57 31 -51 45 -59 75 -38 20 14 21 21 15 72 -12 99 -61 265 -99 339
-13 24 -52 52 -74 52 -4 0 -31 -14 -59 -30z"/>
<path d="M4792 2728 c-70 -26 -89 -55 -73 -110 24 -80 76 -164 150 -245 42
-46 82 -83 88 -83 7 0 19 10 28 23 12 18 13 34 5 77 -17 93 -27 133 -50 190
-12 30 -26 71 -32 90 -21 71 -46 84 -116 58z"/>
<path d="M4442 2726 c-47 -18 -72 -42 -72 -72 0 -46 79 -203 142 -285 51 -66
66 -79 89 -79 55 0 51 64 -25 356 -24 89 -55 108 -134 80z"/>
<path d="M2758 2158 c-36 -8 -49 -16 -57 -36 -7 -17 -11 -186 -12 -467 -2
-412 2 -526 21 -550 5 -5 11 -32 15 -60 16 -123 63 -269 118 -367 48 -86 69
-105 102 -90 29 14 30 16 10 107 -26 116 -39 232 -45 415 -1 8 2 35 5 60 3 25
8 232 10 460 2 228 7 427 10 441 5 21 1 34 -22 58 -32 37 -79 46 -155 29z"/>
<path d="M4309 2156 c-49 -13 -104 -48 -118 -74 -4 -9 -7 -105 -5 -212 4 -238
4 -196 0 -433 -3 -227 -3 -227 82 -269 46 -23 51 -23 372 -23 288 1 329 3 358
18 35 19 44 55 18 76 -33 27 -172 44 -398 48 -160 3 -229 8 -235 16 -18 24
-34 134 -23 162 5 14 10 41 10 59 0 19 6 39 14 45 9 8 78 11 212 12 278 0 354
16 354 74 0 40 -31 55 -131 66 -52 6 -168 10 -258 10 -108 -1 -168 3 -177 10
-8 6 -14 26 -14 45 0 18 -5 45 -10 59 -10 26 4 139 20 157 3 5 89 10 190 12
283 7 364 15 413 40 53 29 62 66 21 92 -24 16 -59 18 -338 21 -223 1 -324 -2
-357 -11z"/>
<path d="M3266 2152 c-77 -7 -125 -68 -134 -172 -21 -232 -1 -342 71 -387 38
-24 44 -24 205 -23 92 1 174 2 182 1 8 -1 74 -5 145 -10 147 -10 181 -20 195
-56 20 -53 -20 -142 -68 -153 -50 -10 -312 -22 -491 -21 -113 0 -208 -4 -213
-9 -5 -5 -9 -33 -10 -63 0 -42 4 -57 21 -70 12 -10 21 -22 21 -28 0 -6 6 -9
13 -6 6 2 178 6 380 9 350 5 369 6 401 26 38 23 66 81 71 145 17 217 17 226 0
283 -42 134 -37 133 -426 128 l-313 -4 -27 28 c-51 51 -50 114 4 153 35 27
115 36 342 37 99 1 205 5 235 10 30 5 78 12 105 16 28 4 53 12 57 18 4 6 8 35
8 63 0 89 6 88 -395 88 -187 0 -358 -1 -379 -3z"/>
<path d="M5290 2130 c0 -9 -9 -11 -30 -7 -24 5 -35 1 -59 -24 -17 -16 -35 -47
-40 -67 -8 -29 -17 -699 -12 -852 2 -50 20 -90 42 -90 10 0 23 -9 29 -19 13
-24 60 -26 112 -4 48 20 47 11 51 451 3 343 4 353 24 372 28 25 120 40 251 40
90 0 106 -3 132 -22 16 -12 34 -35 39 -52 11 -34 17 -393 9 -586 -2 -69 -1
-141 4 -160 4 -19 11 -62 13 -95 7 -72 33 -182 51 -210 7 -11 16 -38 20 -60
24 -135 164 -387 235 -426 23 -12 59 4 59 27 0 8 -13 54 -29 102 -47 143 -61
197 -61 240 0 23 -11 86 -25 141 -22 84 -25 123 -26 262 -2 350 -9 925 -11
951 -4 33 -40 62 -99 76 -25 6 -186 14 -362 18 -255 6 -317 5 -317 -6z"/>
<path d="M1890 2093 c-10 -7 -20 -10 -22 -7 -3 2 -16 -1 -29 -8 -96 -51 -126
-109 -114 -216 13 -110 15 -240 4 -342 -11 -100 -14 -147 -22 -270 -3 -41 -6
-80 -7 -85 -7 -33 1 -55 21 -55 12 0 37 -13 56 -30 39 -35 53 -36 111 -10 l42
19 -5 188 c-3 103 -2 197 1 209 7 27 60 47 87 33 11 -7 45 -9 81 -5 57 5 63 4
93 -22 30 -26 33 -33 38 -112 8 -105 21 -176 47 -257 21 -62 21 -63 58 -63
123 0 134 19 126 219 -3 80 -8 240 -10 355 -6 243 -14 280 -83 356 -80 89
-171 120 -345 117 -68 -1 -117 -7 -128 -14z m230 -174 c75 -23 89 -43 100
-149 13 -130 13 -131 -50 -149 -44 -12 -62 -12 -104 -2 -28 7 -64 12 -80 12
-68 -1 -83 29 -61 120 9 35 17 69 18 75 5 21 53 73 82 88 36 19 46 19 95 5z"/>
</g>
</svg>
